<svg width="0" height="0" style="position:absolute" xmlns="http://www.w3.org/2000/svg" xmlns:xlink="http://www.w3.org/1999/xlink"><symbol viewBox="0 0 16 16" id="icon-alert" xmlns="http://www.w3.org/2000/svg"><path fill-rule="evenodd" d="M8.22 1.754a.25.25 0 0 0-.44 0L1.698 13.132a.25.25 0 0 0 .22.368h12.164a.25.25 0 0 0 .22-.368L8.22 1.754zm-1.763-.707c.659-1.234 2.427-1.234 3.086 0l6.082 11.378A1.75 1.75 0 0 1 14.082 15H1.918a1.75 1.75 0 0 1-1.543-2.575L6.457 1.047zM9 11a1 1 0 1 1-2 0 1 1 0 0 1 2 0zm-.25-5.25a.75.75 0 0 0-1.5 0v2.5a.75.75 0 0 0 1.5 0v-2.5z"/></symbol><symbol viewBox="0 0 16 16" id="icon-beaker" xmlns="http://www.w3.org/2000/svg"><path fill-rule="evenodd" d="M5 5.782V2.5h-.25a.75.75 0 0 1 0-1.5h6.5a.75.75 0 0 1 0 1.5H11v3.282l3.666 5.76C15.619 13.04 14.543 15 12.767 15H3.233c-1.776 0-2.852-1.96-1.899-3.458L5 5.782zM9.5 2.5h-3V6a.75.75 0 0 1-.117.403L4.73 9h6.54L9.617 6.403A.75.75 0 0 1 9.5 6V2.5zm-6.9 9.847L3.775 10.5h8.45l1.175 1.847a.75.75 0 0 1-.633 1.153H3.233a.75.75 0 0 1-.633-1.153z"/></symbol><symbol viewBox="0 0 20 20" id="icon-bug" xmlns="http://www.w3.org/2000/svg"><path d="M17.5 12h-1.515a8.318 8.318 0 0 0-.781-3.102A2.504 2.504 0 0 0 16.999 6.5a.5.5 0 0 0-1 0c0 .761-.57 1.392-1.306 1.487a7.452 7.452 0 0 0-.904-1.124A4.505 4.505 0 0 0 9.499 1a4.505 4.505 0 0 0-4.29 5.863 7.211 7.211 0 0 0-.904 1.124A1.502 1.502 0 0 1 2.999 6.5a.5.5 0 0 0-1 0c0 1.134.759 2.093 1.795 2.398A8.337 8.337 0 0 0 3.013 12H1.499a.5.5 0 0 0 0 1h1.515a8.318 8.318 0 0 0 .781 3.102A2.504 2.504 0 0 0 2 18.5a.5.5 0 0 0 1 0c0-.761.57-1.392 1.306-1.487.174.266.365.521.571.762C6.107 19.21 7.748 20 9.499 20s3.393-.79 4.622-2.225c.207-.241.397-.496.571-.762a1.502 1.502 0 0 1 1.306 1.487.5.5 0 0 0 1 0 2.504 2.504 0 0 0-1.795-2.398A8.337 8.337 0 0 0 15.984 13h1.514a.5.5 0 0 0 0-1zm-8-10a3.504 3.504 0 0 1 3.443 4.134C11.921 5.396 10.738 5 9.5 5s-2.421.395-3.443 1.134A3.504 3.504 0 0 1 9.5 2zM4 12.5c0-3.385 2.201-6.173 5-6.473v12.946c-2.799-.3-5-3.088-5-6.473zm6 6.473V6.027c2.799.3 5 3.088 5 6.473s-2.201 6.173-5 6.473z"/></symbol><symbol viewBox="0 0 16 16" id="icon-code" xmlns="http://www.w3.org/2000/svg"><path fill-rule="evenodd" d="M4.72 3.22a.75.75 0 0 1 1.06 1.06L2.06 8l3.72 3.72a.75.75 0 1 1-1.06 1.06L.47 8.53a.75.75 0 0 1 0-1.06l4.25-4.25zm6.56 0a.75.75 0 1 0-1.06 1.06L13.94 8l-3.72 3.72a.75.75 0 1 0 1.06 1.06l4.25-4.25a.75.75 0 0 0 0-1.06l-4.25-4.25z"/></symbol><symbol viewBox="0 0 16 16" id="icon-pin" xmlns="http://www.w3.org/2000/svg"><path fill-rule="evenodd" d="M4.456.734a1.75 1.75 0 0 1 2.826.504l.613 1.327a3.081 3.081 0 0 0 2.084 1.707l2.454.584c1.332.317 1.8 1.972.832 2.94L11.06 10l3.72 3.72a.75.75 0 1 1-1.061 1.06L10 11.06l-2.204 2.205c-.968.968-2.623.5-2.94-.832l-.584-2.454a3.081 3.081 0 0 0-1.707-2.084l-1.327-.613a1.75 1.75 0 0 1-.504-2.826L4.456.734zM5.92 1.866a.25.25 0 0 0-.404-.072L1.794 5.516a.25.25 0 0 0 .072.404l1.328.613A4.582 4.582 0 0 1 5.73 9.63l.584 2.454a.25.25 0 0 0 .42.12l5.47-5.47a.25.25 0 0 0-.12-.42L9.63 5.73a4.581 4.581 0 0 1-3.098-2.537L5.92 1.866z"/></symbol><symbol viewBox="0 0 16 16" id="icon-search" xmlns="http://www.w3.org/2000/svg"><path fill-rule="evenodd" d="M11.5 7a4.499 4.499 0 1 1-8.998 0A4.499 4.499 0 0 1 11.5 7zm-.82 4.74a6 6 0 1 1 1.06-1.06l3.04 3.04a.75.75 0 1 1-1.06 1.06l-3.04-3.04z"/></symbol></svg>