<svg width="0" height="0" style="position:absolute" xmlns="http://www.w3.org/2000/svg" xmlns:xlink="http://www.w3.org/1999/xlink"><symbol viewBox="0 0 16 16" id="icon-alert" xmlns="http://www.w3.org/2000/svg"><path fill-rule="evenodd" d="M8.22 1.754a.25.25 0 00-.44 0L1.698 13.132a.25.25 0 00.22.368h12.164a.25.25 0 00.22-.368L8.22 1.754zm-1.763-.707c.659-1.234 2.427-1.234 3.086 0l6.082 11.378A1.75 1.75 0 0114.082 15H1.918a1.75 1.75 0 01-1.543-2.575L6.457 1.047zM9 11a1 1 0 11-2 0 1 1 0 012 0zm-.25-5.25a.75.75 0 00-1.5 0v2.5a.75.75 0 001.5 0v-2.5z"/></symbol><symbol viewBox="0 0 16 16" id="icon-beaker" xmlns="http://www.w3.org/2000/svg"><path fill-rule="evenodd" d="M5 5.782V2.5h-.25a.75.75 0 010-1.5h6.5a.75.75 0 010 1.5H11v3.282l3.666 5.76C15.619 13.04 14.543 15 12.767 15H3.233c-1.776 0-2.852-1.96-1.899-3.458L5 5.782zM9.5 2.5h-3V6a.75.75 0 01-.117.403L4.73 9h6.54L9.617 6.403A.75.75 0 019.5 6V2.5zm-6.9 9.847L3.775 10.5h8.45l1.175 1.847a.75.75 0 01-.633 1.153H3.233a.75.75 0 01-.633-1.153z"/></symbol><symbol viewBox="0 0 16 16" id="icon-code" xmlns="http://www.w3.org/2000/svg"><path fill-rule="evenodd" d="M4.72 3.22a.75.75 0 011.06 1.06L2.06 8l3.72 3.72a.75.75 0 11-1.06 1.06L.47 8.53a.75.75 0 010-1.06l4.25-4.25zm6.56 0a.75.75 0 10-1.06 1.06L13.94 8l-3.72 3.72a.75.75 0 101.06 1.06l4.25-4.25a.75.75 0 000-1.06l-4.25-4.25z"/></symbol><symbol viewBox="0 0 16 16" id="icon-pin" xmlns="http://www.w3.org/2000/svg"><path fill-rule="evenodd" d="M4.456.734a1.75 1.75 0 012.826.504l.613 1.327a3.081 3.081 0 002.084 1.707l2.454.584c1.332.317 1.8 1.972.832 2.94L11.06 10l3.72 3.72a.75.75 0 11-1.061 1.06L10 11.06l-2.204 2.205c-.968.968-2.623.5-2.94-.832l-.584-2.454a3.081 3.081 0 00-1.707-2.084l-1.327-.613a1.75 1.75 0 01-.504-2.826L4.456.734zM5.92 1.866a.25.25 0 00-.404-.072L1.794 5.516a.25.25 0 00.072.404l1.328.613A4.582 4.582 0 015.73 9.63l.584 2.454a.25.25 0 00.42.12l5.47-5.47a.25.25 0 00-.12-.42L9.63 5.73a4.581 4.581 0 01-3.098-2.537L5.92 1.866z"/></symbol><symbol viewBox="0 0 16 16" id="icon-search" xmlns="http://www.w3.org/2000/svg"><path fill-rule="evenodd" d="M11.5 7a4.499 4.499 0 11-8.998 0A4.499 4.499 0 0111.5 7zm-.82 4.74a6 6 0 111.06-1.06l3.04 3.04a.75.75 0 11-1.06 1.06l-3.04-3.04z"/></symbol></svg>