<svg viewBox="0 0 402.9 80.701" xmlns="http://www.w3.org/2000/svg">
  <g fill-rule="evenodd" font-size="9pt" id="svgGroup" stroke-linecap="round" stroke-width="0.25mm">
    <path d="M 15.95 80.351 A 16.096 16.096 0 0 0 16.406 80.454 Q 17.576 80.701 18.5 80.701 A 11.239 11.239 0 0 0 21.759 80.202 Q 25.153 79.177 28.75 76.051 Q 34.1 71.401 39.2 64.201 Q 38.3 67.001 37.75 69.351 Q 37.2 71.701 37.2 73.201 Q 37.2 75.801 38.55 77.451 Q 39.9 79.101 41.9 79.901 A 12.171 12.171 0 0 0 43.079 80.305 A 9.883 9.883 0 0 0 45.8 80.701 A 10.933 10.933 0 0 0 48.316 80.396 Q 49.922 80.017 51.625 79.166 A 23.614 23.614 0 0 0 54.7 77.301 A 39.268 39.268 0 0 0 55.545 76.685 Q 59.931 73.4 64.4 68.201 A 97.997 97.997 0 0 0 67.573 64.309 A 115.833 115.833 0 0 0 73.8 55.401 Q 78.3 48.301 81.8 40.751 A 118.524 118.524 0 0 0 84.221 35.166 A 97.176 97.176 0 0 0 87.35 26.201 A 64.92 64.92 0 0 0 87.886 24.262 Q 88.629 21.398 89.008 18.8 A 35.44 35.44 0 0 0 89.4 13.701 Q 89.4 10.049 88.579 7.629 A 8.432 8.432 0 0 0 87.4 5.301 A 10.468 10.468 0 0 0 86.364 4.09 Q 84.86 2.601 83.3 2.601 A 3.476 3.476 0 0 0 82.421 2.719 Q 81.924 2.849 81.394 3.121 A 7.799 7.799 0 0 0 80.45 3.701 Q 78.9 4.801 77.5 7.201 A 6.613 6.613 0 0 1 79.766 8.325 A 7.438 7.438 0 0 1 81.5 10.251 A 6.31 6.31 0 0 1 81.813 10.803 Q 82.627 12.415 82.883 15.015 A 26.523 26.523 0 0 1 83 17.601 A 38.971 38.971 0 0 1 82.521 23.539 A 53.087 53.087 0 0 1 81.2 29.601 Q 79.4 36.101 76.4 42.851 Q 73.4 49.601 69.65 55.801 A 119.052 119.052 0 0 1 66.809 60.275 A 97.255 97.255 0 0 1 61.95 66.951 Q 59.697 69.774 57.526 71.914 A 35.39 35.39 0 0 1 54.3 74.751 Q 50.6 77.601 47.8 77.601 Q 47.083 77.601 46.572 77.418 A 1.748 1.748 0 0 1 45.5 76.451 A 5.015 5.015 0 0 1 45.237 75.662 Q 45 74.709 45 73.401 Q 45 69.701 46.05 65.601 Q 47.1 61.501 48.65 57.401 Q 50.2 53.301 51.7 49.701 Q 52.656 47.523 53.471 45.57 A 174.764 174.764 0 0 0 54.8 42.301 A 34.686 34.686 0 0 0 55.34 40.842 Q 55.836 39.395 56.008 38.371 A 5.915 5.915 0 0 0 56.1 37.401 A 3.68 3.68 0 0 0 55.957 36.405 Q 55.798 35.837 55.462 35.244 A 8.148 8.148 0 0 0 54.75 34.201 A 3.911 3.911 0 0 0 53.296 33.084 Q 52.623 32.773 51.759 32.628 A 10.039 10.039 0 0 0 50.1 32.501 A 24.379 24.379 0 0 1 49.778 34.453 Q 49.507 35.773 49.074 37.262 A 53.719 53.719 0 0 1 48.05 40.401 A 89.613 89.613 0 0 1 46.577 44.221 A 111.719 111.719 0 0 1 43.95 50.101 Q 41.5 55.201 38.55 60.051 A 99.939 99.939 0 0 1 36.687 62.999 A 84.842 84.842 0 0 1 32.45 68.901 Q 30.678 71.151 28.938 72.879 A 28.67 28.67 0 0 1 26.25 75.251 Q 23.2 77.601 20.7 77.601 A 5.205 5.205 0 0 1 19.975 77.554 Q 18.77 77.384 18.3 76.601 Q 17.878 75.898 17.753 74.75 A 9.7 9.7 0 0 1 17.7 73.701 Q 17.7 70.801 18.6 67.001 Q 19.5 63.201 20.95 58.651 Q 22.4 54.101 24 49.101 Q 26.5 41.401 28.55 33.251 A 72.695 72.695 0 0 0 29.799 27.258 A 58.569 58.569 0 0 0 30.6 17.801 Q 30.6 13.308 29.662 9.815 A 18.071 18.071 0 0 0 27.55 4.851 A 9.791 9.791 0 0 0 22.19 0.574 A 12.507 12.507 0 0 0 18.3 0.001 Q 14.6 0.001 11.3 1.601 Q 8 3.201 5.45 5.851 A 23.959 23.959 0 0 0 4.83 6.52 A 20.977 20.977 0 0 0 1.45 11.601 A 16.923 16.923 0 0 0 0.921 12.86 A 14.061 14.061 0 0 0 0 17.801 A 10.132 10.132 0 0 0 0.015 18.36 A 8.097 8.097 0 0 0 1.6 22.851 A 4.665 4.665 0 0 0 3.224 24.214 Q 4.741 25.001 7.1 25.001 Q 6.509 23.623 6.306 21.728 A 20.009 20.009 0 0 1 6.2 19.601 A 25.382 25.382 0 0 1 6.313 17.253 A 32.589 32.589 0 0 1 6.75 14.201 Q 7.3 11.301 8.55 8.701 A 14.778 14.778 0 0 1 9.308 7.313 A 11.994 11.994 0 0 1 11.75 4.451 A 6.752 6.752 0 0 1 14.006 3.182 A 7.883 7.883 0 0 1 16.5 2.801 A 8.899 8.899 0 0 1 16.749 2.804 Q 19.552 2.883 20.75 4.751 Q 21.551 6 21.941 7.762 A 15.472 15.472 0 0 1 22.25 9.901 A 77.958 77.958 0 0 1 22.407 12.477 A 96.577 96.577 0 0 1 22.5 16.801 A 55.993 55.993 0 0 1 22.397 20.162 A 65.551 65.551 0 0 1 21.45 27.901 Q 20.4 33.701 18.8 39.501 A 353.08 353.08 0 0 1 18.398 40.945 A 322.443 322.443 0 0 1 15.5 50.701 Q 13.3 57.701 11.6 63.451 A 67.932 67.932 0 0 0 11.287 64.542 Q 10.38 67.81 10.066 70.294 A 19.317 19.317 0 0 0 9.9 72.701 A 12.438 12.438 0 0 0 9.934 73.632 Q 9.998 74.487 10.185 75.213 A 6.054 6.054 0 0 0 10.8 76.751 A 7.839 7.839 0 0 0 11.093 77.218 A 6.48 6.48 0 0 0 13.1 79.151 Q 14.5 80.001 15.95 80.351 Z M 277.4 55.801 L 278.6 57.201 A 51.292 51.292 0 0 1 275.259 64.253 A 57.746 57.746 0 0 1 274.5 65.551 A 27.757 27.757 0 0 1 271.232 69.968 A 23.305 23.305 0 0 1 268.65 72.401 A 12.325 12.325 0 0 1 264.922 74.503 A 11.054 11.054 0 0 1 261.3 75.101 Q 258.838 75.101 257.316 74.037 A 4.843 4.843 0 0 1 256.2 72.951 A 8.072 8.072 0 0 1 254.659 68.918 A 10.408 10.408 0 0 1 254.6 67.801 Q 254.6 65.301 255.35 62.801 Q 256.1 60.301 256.85 57.901 A 18.796 18.796 0 0 0 257.336 56.033 Q 257.533 55.06 257.583 54.185 A 10.225 10.225 0 0 0 257.6 53.601 A 6.969 6.969 0 0 0 257.536 52.623 Q 257.361 51.388 256.7 50.801 A 3.278 3.278 0 0 0 255.812 50.227 A 2.799 2.799 0 0 0 254.7 50.001 A 3.96 3.96 0 0 0 252.866 50.494 Q 251.533 51.188 250.087 52.862 A 20.611 20.611 0 0 0 249.25 53.901 Q 246.3 57.801 241.6 64.901 A 34.013 34.013 0 0 0 239.256 68.986 A 30.698 30.698 0 0 0 238.9 69.751 Q 237.8 72.201 236.8 74.201 A 8.294 8.294 0 0 1 236.173 74.175 Q 235.871 74.152 235.528 74.108 A 18.911 18.911 0 0 1 234.8 74.001 A 8.963 8.963 0 0 1 233.529 73.697 A 7.198 7.198 0 0 1 232.65 73.351 Q 232.151 73.114 231.914 72.809 A 0.97 0.97 0 0 1 231.7 72.201 A 2.248 2.248 0 0 1 231.742 71.819 Q 231.861 71.158 232.317 69.806 A 53.134 53.134 0 0 1 232.65 68.851 Q 233.303 67.029 234.098 64.782 A 1574.496 1574.496 0 0 0 234.85 62.651 Q 236.1 59.101 237.05 55.451 Q 237.756 52.739 237.937 50.607 A 16.611 16.611 0 0 0 238 49.201 Q 238 47.501 237.45 46.451 Q 236.9 45.401 235.5 45.401 A 4.74 4.74 0 0 0 233.901 45.707 Q 232.541 46.195 230.917 47.464 A 20.941 20.941 0 0 0 230.2 48.051 A 35.968 35.968 0 0 0 227.449 50.685 Q 226.104 52.108 224.724 53.824 A 65.678 65.678 0 0 0 223.8 55.001 Q 220.5 59.301 217.55 64.451 Q 214.6 69.601 212.8 74.701 A 6.894 6.894 0 0 1 212.069 74.659 Q 211.7 74.619 211.281 74.542 A 15.236 15.236 0 0 1 210.6 74.401 A 11.129 11.129 0 0 1 209.458 74.076 Q 208.892 73.88 208.413 73.634 A 6.848 6.848 0 0 1 208.35 73.601 A 4.011 4.011 0 0 1 207.986 73.386 Q 207.633 73.15 207.493 72.914 A 0.608 0.608 0 0 1 207.4 72.601 A 1.759 1.759 0 0 1 207.437 72.293 Q 207.585 71.51 208.329 69.394 A 90.544 90.544 0 0 1 208.45 69.051 Q 209.5 66.101 210.85 61.951 Q 212.2 57.801 213.25 53.501 Q 214.125 49.919 214.271 47.031 A 22.38 22.38 0 0 0 214.3 45.901 A 4.136 4.136 0 0 1 214.795 45.42 Q 215.343 44.964 216.187 44.508 A 13.096 13.096 0 0 1 216.2 44.501 A 5.691 5.691 0 0 1 218.422 43.822 A 5.515 5.515 0 0 1 218.9 43.801 A 4.425 4.425 0 0 1 219.656 43.861 Q 220.059 43.931 220.374 44.082 A 1.896 1.896 0 0 1 220.95 44.501 A 2.346 2.346 0 0 1 221.507 45.563 Q 221.6 45.946 221.6 46.401 Q 221.6 47.701 220.85 50.851 Q 220.1 54.001 219 57.801 Q 221 54.601 223.55 51.251 Q 226.1 47.901 228.9 45.101 A 35.015 35.015 0 0 1 231.889 42.422 A 27.143 27.143 0 0 1 234.55 40.551 A 13.194 13.194 0 0 1 236.841 39.418 Q 238.419 38.83 239.95 38.802 A 8.352 8.352 0 0 1 240.1 38.801 A 6.605 6.605 0 0 1 241.69 38.979 A 3.893 3.893 0 0 1 244.35 41.051 A 10.169 10.169 0 0 1 245.28 43.851 A 14.056 14.056 0 0 1 245.5 46.401 A 25.376 25.376 0 0 1 245.24 49.957 A 30.266 30.266 0 0 1 244.95 51.651 Q 244.4 54.401 243.7 56.751 Q 243 59.101 242.4 60.501 Q 244.5 56.701 247.05 53.151 A 29.451 29.451 0 0 1 249.974 49.657 A 23.38 23.38 0 0 1 252.6 47.351 Q 255.6 45.101 259 45.101 A 8.406 8.406 0 0 1 260.604 45.243 Q 262.542 45.62 263.45 47.001 Q 264.7 48.901 264.7 51.501 Q 264.7 54.02 263.855 57.008 A 28.45 28.45 0 0 1 263.8 57.201 A 185.185 185.185 0 0 1 262.009 63.019 A 170.215 170.215 0 0 1 261.95 63.201 A 23.545 23.545 0 0 0 261.39 65.182 Q 261.171 66.123 261.075 66.961 A 10.912 10.912 0 0 0 261 68.201 A 4.458 4.458 0 0 0 261.366 70.01 A 4.321 4.321 0 0 0 261.65 70.551 Q 262.226 71.481 263.625 71.587 A 4.953 4.953 0 0 0 264 71.601 A 6.324 6.324 0 0 0 267.404 70.58 Q 268.35 69.987 269.25 69.051 Q 271.7 66.501 273.8 62.851 A 79.884 79.884 0 0 0 276.191 58.386 A 66.193 66.193 0 0 0 277.4 55.801 Z M 336.6 41.801 L 336.6 40.001 Q 337.4 40.101 338.5 40.201 Q 339.527 40.294 340.815 40.388 A 180.465 180.465 0 0 0 341 40.401 Q 343.1 35.001 345.5 29.951 Q 347.9 24.901 350.25 20.951 Q 352.026 17.965 353.688 15.894 A 25.255 25.255 0 0 1 354.75 14.651 A 14.304 14.304 0 0 1 355.722 13.678 Q 357.252 12.301 358.4 12.301 A 2.174 2.174 0 0 1 359.789 12.8 A 2.751 2.751 0 0 1 359.85 12.851 A 1.752 1.752 0 0 1 360.408 13.752 Q 360.5 14.088 360.5 14.501 A 4.378 4.378 0 0 1 360.369 15.485 Q 360.013 17.001 358.694 19.504 A 43.938 43.938 0 0 1 358.4 20.051 Q 356.956 22.698 355.04 26.03 A 501.112 501.112 0 0 1 353.2 29.201 A 134.642 134.642 0 0 0 349.032 36.914 A 158.425 158.425 0 0 0 347.2 40.701 L 349.05 40.701 L 350.9 40.701 Q 354.2 40.701 357.85 40.601 Q 361.5 40.501 365.2 40.101 L 365.2 41.901 A 302.508 302.508 0 0 1 360.296 42.397 Q 357.99 42.611 355.933 42.76 A 177.381 177.381 0 0 1 355.35 42.801 Q 351 43.101 347.6 43.101 L 346.85 43.101 L 346.1 43.101 Q 343.8 48.401 342.2 54.001 A 41.313 41.313 0 0 0 340.741 61.728 A 36.128 36.128 0 0 0 340.6 64.901 A 22.505 22.505 0 0 0 340.692 67.012 Q 340.89 69.11 341.518 70.398 A 4.765 4.765 0 0 0 341.9 71.051 Q 343.2 72.901 346.2 72.901 A 12.647 12.647 0 0 0 351.987 71.445 Q 353.795 70.526 355.578 69.025 A 24.857 24.857 0 0 0 356.4 68.301 A 33.464 33.464 0 0 0 360.962 63.07 Q 363.241 59.874 365.2 55.801 L 366.5 56.801 Q 364.1 62.401 360.45 66.901 A 32.78 32.78 0 0 1 355.915 71.522 A 27.222 27.222 0 0 1 352.4 74.001 A 18.697 18.697 0 0 1 346.962 76.196 A 16.71 16.71 0 0 1 343.3 76.601 A 11.866 11.866 0 0 1 340.693 76.332 Q 338.245 75.781 336.7 74.101 A 7.904 7.904 0 0 1 335.049 71.23 Q 334.4 69.304 334.4 66.701 Q 334.4 63.519 335.263 59.265 A 69.769 69.769 0 0 1 336.05 55.851 Q 337.7 49.401 340.2 42.601 Q 339.2 42.401 338.3 42.251 Q 337.4 42.101 336.6 41.801 Z M 144.1 55.801 L 145.6 56.601 A 68.426 68.426 0 0 1 142.368 62.7 Q 139.764 67.034 136.9 70.051 Q 132.895 74.269 128.382 74.893 A 11.54 11.54 0 0 1 126.8 75.001 A 9.816 9.816 0 0 1 124.463 74.741 A 5.995 5.995 0 0 1 120.65 72.051 Q 118.877 69.224 118.803 65.066 A 20.503 20.503 0 0 1 118.8 64.701 Q 118.8 61.073 119.828 56.416 A 65.721 65.721 0 0 1 120.6 53.301 Q 122.4 46.701 125.35 39.401 Q 128.3 32.101 131.8 25.151 Q 135.3 18.201 138.8 12.501 A 100.995 100.995 0 0 1 141.245 8.701 Q 143.36 5.579 145.25 3.401 A 24.453 24.453 0 0 1 146.47 2.086 Q 148.569 0.001 149.9 0.001 A 1.771 1.771 0 0 1 151.198 0.565 Q 151.435 0.805 151.64 1.147 A 4.111 4.111 0 0 1 151.7 1.251 Q 152.356 2.423 152.749 4.034 A 15.61 15.61 0 0 1 152.8 4.251 Q 153.158 5.816 153.196 7.102 A 10.197 10.197 0 0 1 153.2 7.401 A 14.488 14.488 0 0 1 153.055 9.35 Q 152.777 11.384 151.968 14.066 A 50.358 50.358 0 0 1 151.85 14.451 A 65.881 65.881 0 0 1 150.458 18.448 Q 149.428 21.141 148.05 24.151 A 97.709 97.709 0 0 1 143.869 32.232 A 110.916 110.916 0 0 1 142.25 34.951 Q 138.9 40.401 134.95 45.401 A 58.862 58.862 0 0 1 129.572 51.36 A 49.717 49.717 0 0 1 126.6 54.001 A 66.011 66.011 0 0 0 125.765 58.45 A 59.276 59.276 0 0 0 125.65 59.251 A 37.76 37.76 0 0 0 125.338 62.565 A 31.905 31.905 0 0 0 125.3 64.101 A 22.133 22.133 0 0 0 125.387 66.136 Q 125.576 68.179 126.178 69.473 A 5.389 5.389 0 0 0 126.4 69.901 A 3.975 3.975 0 0 0 127.4 71.075 Q 128.34 71.801 129.7 71.801 Q 132.132 71.801 134.524 69.853 A 13.216 13.216 0 0 0 135.05 69.401 A 26.199 26.199 0 0 0 137.781 66.498 A 35.163 35.163 0 0 0 140.05 63.351 Q 142.4 59.701 144.1 55.801 Z M 212.8 56.101 L 214 57.101 A 16.442 16.442 0 0 1 212.227 60.296 A 11.378 11.378 0 0 1 208.35 63.751 Q 204.7 65.701 201.4 65.701 A 12.295 12.295 0 0 1 199.05 65.481 A 11.377 11.377 0 0 1 198.9 65.451 Q 197.7 65.201 196.6 64.701 Q 193.2 69.201 189.15 72.201 A 18.281 18.281 0 0 1 186.302 73.955 Q 184.552 74.809 182.851 75.078 A 9.929 9.929 0 0 1 181.3 75.201 Q 178.503 75.201 176.764 74.08 A 5.429 5.429 0 0 1 175.2 72.551 A 10.256 10.256 0 0 1 173.603 68.524 A 13.884 13.884 0 0 1 173.4 66.101 A 21.093 21.093 0 0 1 173.939 61.44 A 25.06 25.06 0 0 1 174.4 59.701 Q 175.4 56.401 177.05 53.501 A 21.34 21.34 0 0 1 178.685 51.024 A 15.684 15.684 0 0 1 180.75 48.801 A 8.699 8.699 0 0 1 182.165 47.776 Q 183.119 47.231 184.084 47.069 A 4.926 4.926 0 0 1 184.9 47.001 A 3.729 3.729 0 0 1 185.578 47.065 A 4.572 4.572 0 0 1 185.95 47.151 A 9.742 9.742 0 0 1 186.937 47.476 A 8.973 8.973 0 0 1 187 47.501 Q 186.264 48.155 185.295 49.711 A 28.267 28.267 0 0 0 184.85 50.451 A 33.287 33.287 0 0 0 183.5 53.04 A 43.267 43.267 0 0 0 182.5 55.351 A 52.685 52.685 0 0 0 180.697 60.632 A 48.638 48.638 0 0 0 180.65 60.801 A 25.492 25.492 0 0 0 180.208 62.638 Q 180.035 63.507 179.959 64.273 A 11.477 11.477 0 0 0 179.9 65.401 Q 179.9 68.027 180.666 69.389 A 3.449 3.449 0 0 0 180.9 69.751 Q 181.9 71.101 183.5 71.101 Q 185.416 71.101 187.999 69.227 A 19.47 19.47 0 0 0 188.5 68.851 A 29.963 29.963 0 0 0 191.553 66.107 A 40.525 40.525 0 0 0 194.2 63.101 A 14.503 14.503 0 0 1 190.645 58.729 A 17.942 17.942 0 0 1 189.85 57.051 Q 188.3 53.301 188.3 49.401 Q 188.3 46.101 189.45 43.201 A 11.86 11.86 0 0 1 191.074 40.304 A 10.183 10.183 0 0 1 192.8 38.551 A 8.031 8.031 0 0 1 197.223 36.837 A 10.336 10.336 0 0 1 198.1 36.801 Q 202.2 36.801 203.6 39.001 A 8.597 8.597 0 0 1 204.722 41.78 Q 204.974 42.914 204.998 44.227 A 15.237 15.237 0 0 1 205 44.501 A 18.954 18.954 0 0 1 204.583 48.344 Q 204.213 50.128 203.516 52.058 A 34.344 34.344 0 0 1 203.1 53.151 Q 201.2 57.901 198.3 62.301 Q 200.1 63.301 202.1 63.301 A 9.435 9.435 0 0 0 203.66 63.163 Q 204.381 63.042 205.168 62.814 A 16.91 16.91 0 0 0 205.7 62.651 A 10.905 10.905 0 0 0 207.996 61.582 A 14.477 14.477 0 0 0 209.65 60.401 A 10.529 10.529 0 0 0 211.864 57.863 A 13.687 13.687 0 0 0 212.8 56.101 Z M 401.7 56.101 L 402.9 57.101 A 16.442 16.442 0 0 1 401.127 60.296 A 11.378 11.378 0 0 1 397.25 63.751 Q 393.6 65.701 390.3 65.701 A 12.295 12.295 0 0 1 387.95 65.481 A 11.377 11.377 0 0 1 387.8 65.451 Q 386.6 65.201 385.5 64.701 Q 382.1 69.201 378.05 72.201 A 18.281 18.281 0 0 1 375.202 73.955 Q 373.452 74.809 371.751 75.078 A 9.929 9.929 0 0 1 370.2 75.201 Q 367.403 75.201 365.664 74.08 A 5.429 5.429 0 0 1 364.1 72.551 A 10.256 10.256 0 0 1 362.503 68.524 A 13.884 13.884 0 0 1 362.3 66.101 A 21.093 21.093 0 0 1 362.839 61.44 A 25.06 25.06 0 0 1 363.3 59.701 Q 364.3 56.401 365.95 53.501 A 21.34 21.34 0 0 1 367.585 51.024 A 15.684 15.684 0 0 1 369.65 48.801 A 8.699 8.699 0 0 1 371.065 47.776 Q 372.019 47.231 372.984 47.069 A 4.926 4.926 0 0 1 373.8 47.001 A 3.729 3.729 0 0 1 374.478 47.065 A 4.572 4.572 0 0 1 374.85 47.151 A 9.742 9.742 0 0 1 375.837 47.476 A 8.973 8.973 0 0 1 375.9 47.501 Q 375.164 48.155 374.195 49.711 A 28.267 28.267 0 0 0 373.75 50.451 A 33.287 33.287 0 0 0 372.4 53.04 A 43.267 43.267 0 0 0 371.4 55.351 A 52.685 52.685 0 0 0 369.597 60.632 A 48.638 48.638 0 0 0 369.55 60.801 A 25.492 25.492 0 0 0 369.108 62.638 Q 368.935 63.507 368.859 64.273 A 11.477 11.477 0 0 0 368.8 65.401 Q 368.8 68.027 369.566 69.389 A 3.449 3.449 0 0 0 369.8 69.751 Q 370.8 71.101 372.4 71.101 Q 374.316 71.101 376.899 69.227 A 19.47 19.47 0 0 0 377.4 68.851 A 29.963 29.963 0 0 0 380.453 66.107 A 40.525 40.525 0 0 0 383.1 63.101 A 14.503 14.503 0 0 1 379.545 58.729 A 17.942 17.942 0 0 1 378.75 57.051 Q 377.2 53.301 377.2 49.401 Q 377.2 46.101 378.35 43.201 A 11.86 11.86 0 0 1 379.974 40.304 A 10.183 10.183 0 0 1 381.7 38.551 A 8.031 8.031 0 0 1 386.123 36.837 A 10.336 10.336 0 0 1 387 36.801 Q 391.1 36.801 392.5 39.001 A 8.597 8.597 0 0 1 393.622 41.78 Q 393.874 42.914 393.898 44.227 A 15.237 15.237 0 0 1 393.9 44.501 A 18.954 18.954 0 0 1 393.483 48.344 Q 393.113 50.128 392.416 52.058 A 34.344 34.344 0 0 1 392 53.151 Q 390.1 57.901 387.2 62.301 Q 389 63.301 391 63.301 A 9.435 9.435 0 0 0 392.56 63.163 Q 393.281 63.042 394.068 62.814 A 16.91 16.91 0 0 0 394.6 62.651 A 10.905 10.905 0 0 0 396.896 61.582 A 14.477 14.477 0 0 0 398.55 60.401 A 10.529 10.529 0 0 0 400.764 57.863 A 13.687 13.687 0 0 0 401.7 56.101 Z M 176.3 55.701 L 177.6 56.701 Q 175.3 62.701 171.3 67.451 A 34.743 34.743 0 0 1 166.268 72.369 A 29.113 29.113 0 0 1 162.5 74.901 A 21.555 21.555 0 0 1 157.372 77.008 A 18.049 18.049 0 0 1 152.8 77.601 A 11.828 11.828 0 0 1 148.588 76.874 A 10.63 10.63 0 0 1 144.8 74.401 Q 141.6 71.201 141.6 64.801 Q 141.6 59.801 143.55 55.051 Q 145.5 50.301 148.7 46.501 Q 151.9 42.701 155.8 40.451 A 17.947 17.947 0 0 1 159.374 38.855 A 13.684 13.684 0 0 1 163.5 38.201 A 10.879 10.879 0 0 1 165.495 38.37 Q 166.571 38.571 167.387 39.011 A 4.488 4.488 0 0 1 169.1 40.601 A 9.902 9.902 0 0 1 170.343 43.482 A 8.812 8.812 0 0 1 170.6 45.601 A 10.548 10.548 0 0 1 170.23 48.445 A 8.822 8.822 0 0 1 169.25 50.701 A 5.329 5.329 0 0 1 168.262 51.908 A 3.87 3.87 0 0 1 165.6 52.901 Q 163.9 52.901 162.7 51.401 A 4.276 4.276 0 0 0 163.811 50.524 Q 164.244 50.058 164.636 49.421 A 11.146 11.146 0 0 0 165.3 48.151 Q 166.4 45.701 166.4 43.501 A 5.151 5.151 0 0 0 166.356 42.805 Q 166.308 42.451 166.206 42.163 A 2.145 2.145 0 0 0 165.95 41.651 A 1.299 1.299 0 0 0 165.394 41.207 Q 164.953 41.01 164.268 41.001 A 5.066 5.066 0 0 0 164.2 41.001 Q 161.923 41.001 159.539 42.708 A 14.383 14.383 0 0 0 158.65 43.401 A 24.106 24.106 0 0 0 155.652 46.445 A 32.383 32.383 0 0 0 153.35 49.601 Q 150.9 53.401 149.35 57.601 A 26.692 26.692 0 0 0 148.212 61.552 A 19.936 19.936 0 0 0 147.8 65.501 Q 147.8 68.601 149.3 71.201 Q 150.578 73.417 153.891 73.744 A 12.309 12.309 0 0 0 155.1 73.801 A 15.645 15.645 0 0 0 160.624 72.761 A 20.019 20.019 0 0 0 163.15 71.601 A 24.603 24.603 0 0 0 167.998 68.109 A 31.526 31.526 0 0 0 170.7 65.301 A 31.641 31.641 0 0 0 175.463 57.714 A 36.947 36.947 0 0 0 176.3 55.701 Z M 120.5 55.801 L 121.7 56.701 A 38.699 38.699 0 0 1 117.07 64.499 A 34.54 34.54 0 0 1 114.85 67.101 A 34.719 34.719 0 0 1 109.389 71.839 A 29.735 29.735 0 0 1 105.85 73.951 A 22.673 22.673 0 0 1 99.458 76.105 A 20.349 20.349 0 0 1 96 76.401 A 17.65 17.65 0 0 1 92.485 76.074 Q 90.44 75.658 88.876 74.712 A 9.065 9.065 0 0 1 86.85 73.051 Q 83.8 69.701 83.8 64.801 A 20.368 20.368 0 0 1 84.512 59.58 A 27.753 27.753 0 0 1 86.05 55.301 A 39.353 39.353 0 0 1 92.021 45.935 A 43.151 43.151 0 0 1 92.05 45.901 A 36.04 36.04 0 0 1 97.561 40.631 A 31.684 31.684 0 0 1 100.3 38.751 A 20.295 20.295 0 0 1 104.218 36.871 A 15.115 15.115 0 0 1 109.2 36.001 Q 111.5 36.001 113.45 37.201 A 3.578 3.578 0 0 1 114.85 38.875 Q 115.396 40.126 115.4 42.072 A 14.038 14.038 0 0 1 115.4 42.101 A 12.531 12.531 0 0 1 113.322 48.988 A 15.179 15.179 0 0 1 113.15 49.251 Q 110.9 52.601 107.25 55.201 Q 103.6 57.801 99.25 59.451 A 33.683 33.683 0 0 1 92.349 61.287 A 30.478 30.478 0 0 1 90.6 61.501 A 23.767 23.767 0 0 0 90.389 62.712 A 19.875 19.875 0 0 0 90.3 63.401 A 16.544 16.544 0 0 0 90.214 64.487 A 13.732 13.732 0 0 0 90.2 65.101 Q 90.2 66.601 90.55 68.101 Q 90.9 69.601 91.8 70.851 A 5.787 5.787 0 0 0 93.692 72.519 A 7.101 7.101 0 0 0 94.25 72.801 A 7.298 7.298 0 0 0 95.809 73.291 Q 96.552 73.442 97.41 73.484 A 14.017 14.017 0 0 0 98.1 73.501 Q 102.4 73.501 106.6 71.051 Q 110.8 68.601 114.4 64.601 Q 118 60.601 120.5 55.801 Z M 310.8 55.801 L 312 56.701 A 38.699 38.699 0 0 1 307.37 64.499 A 34.54 34.54 0 0 1 305.15 67.101 A 34.719 34.719 0 0 1 299.689 71.839 A 29.735 29.735 0 0 1 296.15 73.951 A 22.673 22.673 0 0 1 289.758 76.105 A 20.349 20.349 0 0 1 286.3 76.401 A 17.65 17.65 0 0 1 282.785 76.074 Q 280.74 75.658 279.176 74.712 A 9.065 9.065 0 0 1 277.15 73.051 Q 274.1 69.701 274.1 64.801 A 20.368 20.368 0 0 1 274.812 59.58 A 27.753 27.753 0 0 1 276.35 55.301 A 39.353 39.353 0 0 1 282.321 45.935 A 43.151 43.151 0 0 1 282.35 45.901 A 36.04 36.04 0 0 1 287.861 40.631 A 31.684 31.684 0 0 1 290.6 38.751 A 20.295 20.295 0 0 1 294.518 36.871 A 15.115 15.115 0 0 1 299.5 36.001 Q 301.8 36.001 303.75 37.201 A 3.578 3.578 0 0 1 305.15 38.875 Q 305.696 40.126 305.7 42.072 A 14.038 14.038 0 0 1 305.7 42.101 A 12.531 12.531 0 0 1 303.622 48.988 A 15.179 15.179 0 0 1 303.45 49.251 Q 301.2 52.601 297.55 55.201 Q 293.9 57.801 289.55 59.451 A 33.683 33.683 0 0 1 282.649 61.287 A 30.478 30.478 0 0 1 280.9 61.501 A 23.767 23.767 0 0 0 280.689 62.712 A 19.875 19.875 0 0 0 280.6 63.401 A 16.544 16.544 0 0 0 280.514 64.487 A 13.732 13.732 0 0 0 280.5 65.101 Q 280.5 66.601 280.85 68.101 Q 281.2 69.601 282.1 70.851 A 5.787 5.787 0 0 0 283.992 72.519 A 7.101 7.101 0 0 0 284.55 72.801 A 7.298 7.298 0 0 0 286.109 73.291 Q 286.852 73.442 287.71 73.484 A 14.017 14.017 0 0 0 288.4 73.501 Q 292.7 73.501 296.9 71.051 Q 301.1 68.601 304.7 64.601 Q 308.3 60.601 310.8 55.801 Z M 127.5 50.601 A 62.647 62.647 0 0 0 132.008 45.555 A 75.912 75.912 0 0 0 134.3 42.551 Q 137.6 38.001 140.45 33.101 Q 143.3 28.201 145.5 23.601 Q 147.7 19.001 148.9 15.351 Q 149.898 12.316 150.066 10.421 A 8.177 8.177 0 0 0 150.1 9.701 A 6.299 6.299 0 0 0 150.088 9.297 Q 150.049 8.691 149.882 8.443 A 0.526 0.526 0 0 0 149.85 8.401 A 1.556 1.556 0 0 0 149.736 8.277 Q 149.608 8.153 149.494 8.117 A 0.304 0.304 0 0 0 149.4 8.101 A 0.927 0.927 0 0 0 148.964 8.24 Q 148.145 8.696 146.65 10.651 A 49.537 49.537 0 0 0 145.233 12.611 Q 143.806 14.679 142.1 17.501 Q 139.5 21.801 136.8 27.301 A 183.076 183.076 0 0 0 131.803 38.426 A 199.301 199.301 0 0 0 131.65 38.801 A 123.762 123.762 0 0 0 127.965 49.057 A 111.599 111.599 0 0 0 127.5 50.601 Z M 96.215 57.447 A 63.326 63.326 0 0 0 97.2 56.951 Q 100.6 55.201 103.75 52.801 A 25.888 25.888 0 0 0 107.373 49.478 A 22.105 22.105 0 0 0 108.95 47.501 A 11.479 11.479 0 0 0 110.503 44.478 A 9.744 9.744 0 0 0 111 41.401 A 4.876 4.876 0 0 0 110.961 40.762 Q 110.875 40.113 110.6 39.701 A 1.112 1.112 0 0 0 110.138 39.318 Q 109.754 39.135 109.139 39.106 A 5.098 5.098 0 0 0 108.9 39.101 A 7.193 7.193 0 0 0 106.505 39.535 Q 105.561 39.867 104.577 40.453 A 14.496 14.496 0 0 0 103.8 40.951 A 23.1 23.1 0 0 0 100.826 43.396 A 30.237 30.237 0 0 0 98.6 45.801 Q 96.1 48.801 94.1 52.401 A 34.613 34.613 0 0 0 91.823 57.351 A 30.043 30.043 0 0 0 91.1 59.601 Q 93.403 58.833 96.215 57.447 Z M 286.515 57.447 A 63.326 63.326 0 0 0 287.5 56.951 Q 290.9 55.201 294.05 52.801 A 25.888 25.888 0 0 0 297.673 49.478 A 22.105 22.105 0 0 0 299.25 47.501 A 11.479 11.479 0 0 0 300.803 44.478 A 9.744 9.744 0 0 0 301.3 41.401 A 4.876 4.876 0 0 0 301.261 40.762 Q 301.175 40.113 300.9 39.701 A 1.112 1.112 0 0 0 300.438 39.318 Q 300.054 39.135 299.439 39.106 A 5.098 5.098 0 0 0 299.2 39.101 A 7.193 7.193 0 0 0 296.805 39.535 Q 295.861 39.867 294.877 40.453 A 14.496 14.496 0 0 0 294.1 40.951 A 23.1 23.1 0 0 0 291.126 43.396 A 30.237 30.237 0 0 0 288.9 45.801 Q 286.4 48.801 284.4 52.401 A 34.613 34.613 0 0 0 282.123 57.351 A 30.043 30.043 0 0 0 281.4 59.601 Q 283.703 58.833 286.515 57.447 Z M 196 60.501 Q 198.5 56.801 200.15 52.751 A 23.947 23.947 0 0 0 201.334 49.053 A 17.735 17.735 0 0 0 201.8 45.101 Q 201.8 42.555 201.145 41.204 A 3.65 3.65 0 0 0 200.95 40.851 A 3.631 3.631 0 0 0 200.406 40.168 A 2.242 2.242 0 0 0 198.8 39.501 Q 196.8 39.501 194.7 42.401 A 10.731 10.731 0 0 0 192.92 46.492 A 15.248 15.248 0 0 0 192.6 49.701 A 20.988 20.988 0 0 0 193.398 55.367 A 23.378 23.378 0 0 0 193.45 55.551 Q 194.3 58.501 196 60.501 Z M 384.9 60.501 Q 387.4 56.801 389.05 52.751 A 23.947 23.947 0 0 0 390.234 49.053 A 17.735 17.735 0 0 0 390.7 45.101 Q 390.7 42.555 390.045 41.204 A 3.65 3.65 0 0 0 389.85 40.851 A 3.631 3.631 0 0 0 389.306 40.168 A 2.242 2.242 0 0 0 387.7 39.501 Q 385.7 39.501 383.6 42.401 A 10.731 10.731 0 0 0 381.82 46.492 A 15.248 15.248 0 0 0 381.5 49.701 A 20.988 20.988 0 0 0 382.298 55.367 A 23.378 23.378 0 0 0 382.35 55.551 Q 383.2 58.501 384.9 60.501 Z" vector-effect="non-scaling-stroke"/>
  </g>
</svg>
