<svg viewBox="0 0 805.237 805.237" xmlns="http://www.w3.org/2000/svg">
  <path d="M113.433 119.914H918.67v805.238H113.433Z" fill="#01111f" style="stroke-width:.786365" transform="translate(-113.433 -119.914)"/>
  <path d="M521.567 63.086h19l14 4 9 3 19 1 12 3 14 8 8 7 8 13 6 18 5 8 9 8 10 5 16 3 15 4 11 6 10 8 8 10 7 14 3 14 1 19 4 7 4 3v2l-21 6-14 3-10 6-9 11-10-4v-2h-2l-4-5-10-7-5-2-13-1-14 3-15 7-21 3-8 11-6 12-2 8-2 16-5 5-5-2-10-5-12-3h-21l-8 1-5-7-8-4h-13l-18 4-10-1-3 10-2 8-2 18-3 9-12-7-15-5-1-6 3-10 7-21 3-14-8 11-11 10-14 9-23 12-17 8h-2l2-4 11-15-6 2-40 20-19 10-34 17-17 8-2 2-10 4-22 11-19 10-15 7-5-1-3-2-1-8v-8h-7l-22 12-23 13-28 15-23 13-24 13-12 7-5 1-5-3-2-6 3-7 4-4 31-17 8-5 15-9 11-6 17-10 60-35 9-5 21-12 19-11 13-8 11-6 14-8 13-8 11-6 19-11 9-8 5-12 1-4v-10l-3-7-5-5-5-2h-8l-8 4-7 8-8 15-7 19-4 5-26 14-16 9-16 8-23 12-8 4-2-1 13-11 10-8 14-12 11-9 14-12 12-11 7-10 7-18 9-14 10-10 9-6 13-5 10-3 10-5 10-9 14-28 7-9 8-8 9-6 12-4 6-1 22-1 12-4 22-16 10-5 9-2 18-1 10-4 13-10 8-5 9-4z" fill="#b5ea27"/>
  <path d="M678.567 431.086h2l2 7v10l-6 15-8 12-11 12-13 9-13 8-7 8-9 15-11 12-11 7-12 5-17 3h-20l-9 7-9 8-15 10-11 6-19 19-12 9-14 7-14 4-15 2h-19l-5-1 6-7 5-3 1-3 6-2 8-7 4-7-1-8-4-6-7-4-9-3h-6l-12 5-12 3-35 14-29 11-11 4-3-1 13-8 18-10 42-22 26-13 19-10 16-8 5-5 12-6v-5l-10 1-31 13-32 13-21 9-13 5-29 12-25 10h-2l1-4 6-8v-7l-8 2-28 14-36 16-10 4-5-1-7-5-9 1-23 11-7-1-3-3v-9l6-7 19-9 35-15 30-12 6-1v-2l5-3 17-6 13-4 9-2v-2l15-4 10-4 10-2 22-8 3 1-13 12-11 9-4 2h4l14-6 25-10 27-12 1 2-3 6-1 6 9-2 29-11 11-4 20-8h2l-3 15v6l4 4h10l19-5 15-8 9-7 1-2h2l2-4 6-13 3-11 3-3h2v-2l8-7 8-10 1-1 9 1 7 4 7 1 6 4 5 2h26l15-4 9-3 9-6 11-8 10-10z" fill="#2b4c42"/>
  <path d="M524.567 175.086h2l2 16 4 11 7 11 11 9 9 5 15 4h16l8-2 10-4 10-10 3-6 1-8 1-1 1-18v-6l3-1 32 16 11 5 8 8 8 11 2 6 5-2 3-3 4 3v2l4 1 6 15-12 3-10 6-9 11-10-4v-2h-2l-4-5-10-7-5-2-13-1-14 3-15 7-21 3-8 11-6 12-2 8-2 16-5 5-5-2-10-5-12-3h-21l-8 1-5-7-8-4h-13l-18 4-10-1-3 10-2 8-2 18-3 9-12-7-15-5-1-6 3-10 7-21 4-17h2l1-5 4-10 5-10 4-6h2l1-4 9-12 5-5 12-16 14-3 24-1 6-4 5-8zM753.567 434.086h5l2 2v9l-4 26-8 32-9 25-11 24-10 19-14 22-13 18-11 13-9 10-11 12-15 14-11 9-13 10-21 14-21 12-16 8-20 9-28 10-27 7-21 4-26 3-27 2h-13l-29-2-29-4-17-4-1-3 12-25 2-1 18 4 13 2 24 2h28l34-3 31-6 25-7 22-8 20-9 25-13 15-10 14-10 11-9 14-12 20-20 9-11 11-14 11-16 9-15 12-23 11-26 8-25 9-39 11-4z" fill="#6ec35c"/>
  <path d="M387.567 53.086h32l18 2-6 8-19 19-35 2-27 4-27 6-23 7-25 10-25 12-21 12-11 8-16 12-14 12-22 22-9 11-11 14-11 16-11 18-14 27-10 24-10 30-5 20-7 10-2 1h-9l-10-1-2-1v-8l7-31 8-25 10-26 14-29 11-19 13-19 12-16 12-14 7-8 19-19 11-9 12-10 17-12 21-13 27-14 26-11 32-10 27-6 31-5z" fill="#b4ea28"/>
  <path d="M521.567 63.086h19l14 4 9 3 19 1 12 3 14 8 8 7 8 13 6 18 5 8 9 8 10 5 16 3 15 4 11 6 10 8 8 10 7 14 3 14 1 19 4 7 4 3v2l-21 6-3-1-1-5-4-10-2-6-3-15-7-13-5-7-6-4-9-5-17-5-8-1-12-3-14-7-11-10v-2l-4-2-4-8-5-14v-5l-3-1-4-7-5-4-6-3-12-3-7 1-1 2h-3l-4-4-9-4-11-1-12 5-8 5h-2l-1 3-12 7-6 2-7 1-27 1-11 4-14 10-2 2-7 2-8 4-8 1-19 1-10 2-15 8-5 5-6 7h-2v2l-5 4-1 2h-2v2h-2l-2 4-6 6h-2l-2 5-4 2v2l-8 6-14 6-12 4-6 3h-2v2l-6 4-10 13-4 11-2 4h-2l-2 5-4 3h-2l-1 3-12 6v-2l6-5 7-10 7-18 9-14 10-10 9-6 13-5 10-3 10-5 10-9 14-28 7-9 8-8 9-6 12-4 6-1 22-1 12-4 22-16 10-5 9-2 18-1 10-4 13-10 8-5 9-4z" fill="#fbfcfa"/>
  <path d="M86.567 536.086h4v12l-11 8-8 7-7 10-5 10-3 11v21l3 12 7 11 6 7 12 7 14 3 13-1 18-6 25-12 28-14 3 1 1 3-3 6 1 6 1 1h7l35-17 23-11 7-1 3 2 1 5-3 6-14 8-26 14-22 12-31 16-16 9-22 10-19 5-6 1h-19l-9-2-16-8-10-9-7-8-8-14-4-12-2-14v-15l4-20 7-16 8-12 11-12 10-9 16-10z" fill="#93cd33"/>
  <g style="fill:currentColor;fill-opacity:1">
    <path d="m644.54 452.066-6.548 1.483-10.045 3.707-5.58 3.707-9.598 8.155-2.603 3.707-4.538 6.673-4.91 10.379-3.197 12.604-1.858 11.12-.742 14.828 1.342 13.345 1.34 5.931 4.095 11.121 6.103 8.897 5.656 4.448 6.25 2.966 9.08 1.483h8.184l8.78-1.483 10.045-3.707 9.747-6.673 7.365-8.155 5.803-8.897 5.28-14.086 2.9-15.57-.003-14.827-1.864-18.535-1.49-7.414-4.838-11.12-5.88-6.673-7.962-5.19-8.409-2.224zm-2.675 25.207h8.93l6.995 2.966 5.135 6.672 2.16 6.673 1.565 15.57-.891 13.344-3.272 11.862-3.794 6.673-6.026 6.672-5.655 2.966-6.548 1.483h-8.185l-6.176-2.224-3.275-2.966-.149-1.483h-1.488l-3.945-9.638-1.044-10.38.295-11.862 1.859-11.12 4.76-11.863 4.612-5.93 4.092-3.708 6.399-2.965z" style="stroke-width:.742748" transform="translate(-113.433 -119.914)"/>
    <path d="M463.866 472.477h6l2 2v21l-2 102-1 17-4 5-13 4h-6l-2-2v-17l1-35 1-4h-3l-1 5-16 40-8 19-2 1-13-28-8-19-2-1v17l-1 37-3 5-5 3-10 3h-5l-2-2v-55l1-69 1-14 5-5 10-4h7l1 3h2l7 16 7 17 5 11 4 8 2 1 2-7 14-36 12-29 4-5z" transform="translate(-113.433 -119.914)"/>
    <path d="M760.507 408.584h9.676l10.614 2.661 8.915 5.322 5.435 7.095 2.796 7.096.959 3.548.236 10.643-2.52 5.322-3.46 2.66-9.617 2.661h-4.398l-2.717-3.548-3.696-7.982-4.477-3.548-2.659-.887H753.28l-9.597 3.548-6.919 5.322-6 7.095-5.881 12.417-4.024 16.852-.761 5.322.551 24.835 3.696 7.982.04 1.774 2.658.887 2.698 2.66 4.437 1.775 7.936.886 13.995-3.547 7.78-6.209 5.96-8.87 5.001-12.417 4.34-2.66 9.616-2.661 5.297.887 2.718 3.548-.682 8.869-4.963 14.191-5.061 9.756-7.7 9.757-8.619 7.982-12.157 7.096-7.857 2.66-10.516 1.775h-9.676l-12.374-2.661-8.034-5.322-7.215-7.982-3.695-7.983-2.895-11.53-1.037-7.096-.434-19.512 2.206-19.513 4.884-17.74 7.542-16.851 6.82-9.756 7.72-8.87 6.039-5.322 6.078-3.547 11.317-5.322z" style="stroke-width:.883272" transform="translate(-113.433 -119.914)"/>
    <path d="M894.24 352.898h5l2 3-1 6-14 29-16 36-3 7 2 10 6 18 6 21 4 11 4 13v9l-4 3-19 5-5-1-4-9-11-40v-4h-2l-2 10-4 22-3 24-5 5-14 4h-5l-2-2v-15l4-67 3-57 1-17 4-5 14-5 9-1 2 2v14l-2 32-1 5h2l3-9 13-31 8-17 7-4z" transform="translate(-113.433 -119.914)"/>
    <path d="m554.465 465.461-8.436.97-25.238 6.786-12.592 4.847-3.063 5.816-.536 28.114-.16 48.471-1.107 54.288 3.26 4.847h5.284l10.514-2.908 6.287-2.909 2.042-3.877.697-19.389.429-33.93 6.323-.969.054 2.908 12.414 42.655 3.278 5.816h6.341l11.553-3.877 4.156-3.878.93-6.786-2.238-6.786-9.011-30.052-1.237-9.694 7.29-5.817 5.177-5.816 6.16-9.695 3.977-13.572-.449-24.235-4.407-9.694-6.466-6.786-8.526-3.878zm-8.955 30.053 7.416.969 3.224 2.908 1.11 2.909.198 10.663-3.009 8.725-6.215 6.786-8.382 3.878-7.38.97-.359-19.39.788-14.54z" style="stroke-width:1.01217" transform="translate(-113.433 -119.914)"/>
    <path d="m252 530 5 1 2 2-2 170-3 15-7 14-11 11-8 4-8 2h-8l-9-3-6-5-5-9-1-4v-13l4-6 2-2h6l5 4 3 4h7l5-5 2-5 1-20 1-134 1-10 5-5z" transform="translate(-113.433 -119.914)"/>
    <path d="m327.584 538.205-17 4.443-3 2.665-4 14.218-10 51.538-12 60.425v7.997l1 .889h7l6-1.778 8-3.554 3-10.663 2-14.218h3l14-3.554v3.554l2 8.886 3 7.109h6l10-2.666 4-3.554 1-7.109-2-10.663-8-52.427-8-47.984-2-2.666zm-10 71.087h2l4 16.883-1 2.666-10 2.666 3-16.883z" style="stroke-width:.942652" transform="translate(-113.433 -119.914)"/>
  </g>
  <path d="M678.567 431.086h2l2 7v10l-6 15-8 12-11 12-13 9-13 8-7 8-9 15-11 12-11 7-12 5-17 3h-20l-9 7-9 8-15 10-11 6-19 19-12 9-14 7-14 4-15 2h-19l-5-1 5-5 11-6 20-7 11-7 4-5h2l2-5 3-3h2l1-3 12-2 21-8 8-2 1-2 2-1 2-4 6-5 6-9 6-7 5-5 6-7 12-3 5 2 3 4h8l17-6 9-6 6-7 5-7 1-5 2-2 3-4 4-11 5-4 11-6 7-6h2l2-4 4-5 3-5 14-9 12-11z" fill="#b3e928"/>
  <path d="m643.567 459.086 2 3-7 9-12 9-8 4h-2l-1 3h-2l-2 9-4 8h-2l-2 6-7 10-8 7-10 5-12 4h-8l-4-5-4-1-12 3-9 11h-2l-2 4-7 8-4 6-5 4-2 5-9 3-20 8-7 2-8 1-7 8-2 2v-14l4-13 9-10 9-6 14-7 23-11 4-4 7-8 6-7 18-10 4-2 2-4 7-8 12-23 4-6 1-1 8 1 10 3h26l15-4Z" fill="#6dc25b"/>
  <path d="m358.567 221.086 4 1 3 5 10 7 18 7 14 1-2 4-3 4 2 5 1 2-1 9-4 6-8 5-6 1v2h-3v2l5 1 5 2 11-1 6-3 3 1-9 8-17 10-24 12-9 4h-2l2-4 11-15-6 2-40 20-19 10-28 14-2-1 8-5v-3h3l-1-3-4-1v-2h2l-2-5 8-5 6-3 9-7 8-4 5-4 6-4 5-3 13-10 7-9 6-14 3-9 4-27z" fill="#6ec35c"/>
  <path d="M339.567 278.086v3l-9 8-8 6-12 7-4 4-10 5-7 6-12 6 1 5h-2v2l5 1v3l-2 1-1 3-7 4-3 3-19 9-2 2-10 4-22 11-19 10-15 7-5-1-3-2-1-8v-8l-5-1v-4h-2v-2l4-4-5-1-2-2v-3l8-4 4-4 10-4 7-4 11-6h2v-2l8-4 11-6 14-8 2-2 8-3 3-1v-2l15-6 4-1-1 7-2 2h4v-3l8-1 1-2 5-1 17-10 2 1-14 12-5 5-17 9-18 10-5 3h-2v2l-9 3v2l-14 9-8 5-1 2-5 3 6-2 17-9 16-8 10-6 10-5 11-6 5-3 6-2 16-8 8-6 5-3h3v-2l11-6z" fill="#96cf31"/>
  <path d="M406.567 589.086h5l1 6-8 6-26 15-25 15-25 14-27 16-27 15-24 14-25 14-14 8-24 14-10 6-9 1-6-3-2-4 1-7 3-6 6-5 25-13 16-8 23-12 35-17 19-10 16-8z" fill="#92cd34"/>
  <path d="m307.567 260.086 1 3-7 12-3 1v2l-12 6-9 5-24 13h-3v2l-7 4-5 2-8 5-11 6-12 7h-3v2l-17 9-9 5h-4l-1 3-9 5h-2v3l3 1 4 2-2 4h-2v2h2v4l-24 13-23 13-28 15-23 13-24 13-12 7-5 1-5-3-2-6 3-7 4-4 31-17 8-5 15-9 11-6 17-10 60-35 9-5 21-12 19-11 13-8 11-6 14-8 13-8 11-6 19-11z" fill="#b3e929"/>
  <path d="M86.567 536.086h4v12l-11 8-8 7-7 10-5 10-4 16-2 2-3 15v13l2 18 4 8 1 5 3 1 6 8 9 8 3 2 16 4-5 6-8 6-1 2-6-1-16-8-10-9-7-8-8-14-4-12-2-14v-15l4-20 7-16 8-12 11-12 10-9 16-10z" fill="#fbfcfb"/>
  <path d="M494.567 197.086h12l11 4 8 6 5 7 3 10v7l-3 11-6 8-9 6-11 3h-9l-13-4-8-6-5-6-3-8v-14l4-9 7-8 11-6z" fill="#031320"/>
  <path d="m427.567 264.086 1 3-5 20-7 19-1 5-1-3-11 7-8 5-24 8-9 1-11-11-16 8-25 12-28 14-27 12-7 3-3-1 7-5h2v-2l-6-1-2-2 5-4 41-20 22-11 19-10 30-15 3 1-13 17-1 2 35-17 14-8 10-8 9-8z" fill="#2b4c42"/>
  <path d="M399.567 156.086h16l9 5 5 7 1 3v10l-7 14-8 8-13 6-4 1h-12l-11-4-5-6-2-7 1-10 5-10 7-8 13-8z" fill="#2a4b41"/>
  <path d="m327.567 528.086 3 1-27 15-25 13-16 9-60 30-23 11-7 3-7-1-3-3v-9l6-7 19-9 35-15 30-12 42-15z" fill="#6ec35c"/>
  <path d="m307.567 260.086 1 3-7 12-3 1v2l-12 6-9 5-24 13h-3v2l-7 4-5 2-8 5-11 6-12 7h-3v2l-17 9-9 5h-4l-1 3-9 5-12 6-4 3-22 13-8 4-9 5-8 5-9 5-8 5-8 4-13 8-13 7-10 6-4 3-6 1-1-4 14-8 39-23 11-6 17-10 60-35 9-5 21-12 19-11 13-8 11-6 14-8 13-8 11-6 19-11z" fill="#f9fcf6"/>
  <path d="m680.567 435.086 2 3v10l-6 15-8 12-11 12-13 9-13 8-7 8-9 15-11 12-11 7-12 5-10 2h-17l4-4 15-6 6-1v-2l6-3 14-11 1-2h2l2-4 10-15 7-7 8-6 11-8 15-13 12-14 1-2h2l2-5 4-5 2-5z" fill="#fbfdfa"/>
  <path d="m453.567 531.086 1 2-8 15-11 12-31 14-28 11-30 12-29 11-11 4-3-1 13-8 18-10 42-22 26-13 19-10 25-13z" fill="#6ec35c"/>
  <path d="m270.567 233.086 5 1-1 5-6 14-5 13-8 6-25 13-12 7-16 8-23 12-8 4-2-1 13-11 10-8 14-12 11-9 14-12 6-5 12-6 8-8 1-2h3v4h3l1-5 2-2 1-4h2z" fill="#aee62c"/>
  <path d="M54.567 599.086h1l1 16 3 12 7 11 6 7 13 8v2h2l1 3h-2v2l6 3-1 3-4 3 8 1-2 4-3 1v2l2 2h-8v1h-6l-11-9-7-8-4-5-4-9-2-7-1-13v-13l3-15Z" fill="#b2e829"/>
  <path d="M572.567 156.086h13l10 5 6 7 2 5v9l-4 7-5 3-4 1h-11l-9-4-6-5-4-8v-8l3-6 6-5zM410.567 173.086h13l6 2-1 8-2 7-6 8-7 6-11 5h-13l-5-4-1-2v-8l5-9 9-8z" fill="#021320"/>
  <path d="m635.567 235.086 13 1 10 5 9 8v2h2l-1 3h-21l-9-6-8-3h-12l-9 6-12 9-11 7-12 9-4 5-2 4 1-10 5-12 10-14 6-2 16-2 15-7z" fill="#2b4c42"/>
  <path d="m298.567 696.086 9 3 16 6 1 2-12 23-2 2-9-2-23-10-8-4 5-5 14-9z" fill="#6ec35c"/>
  <path d="m537.567 556.086 2 1-9 9-13 9-17 10-19 19-12 9-14 7-14 4-15 2h-19l-5-1v-1l9-3 2-1 13-2 15-3 9-4 6-4 10-8 7-6 11-4 10-4 7-4h2l1-3 6-5 4-2 2-3 7-4 6-4z" fill="#fbfdfa"/>
  <path d="M218.567 235.086h6l3 3-1 6-9 10-23 13-24 14-26 14-11 6-2-1 16-13 19-14 9-7 13-10 19-14z" fill="#afe72b"/>
  <path d="m616.567 478.086 2 1-2 3h-2l-2 11-5 11h-2l-2 6-5 7-15 10h-9l-3-3-1-7 4-10 9-10 9-6 8-1v-2l15-9Z" fill="#031320"/>
  <path d="M384.567 248.086h12l5 3 4 6-1 9-4 6-8 5-10 3-8-1-5-5-2-7 3-9 4-5z" fill="#021320"/>
  <path d="m554.567 98.086 12 3 9 6 4 6-1 6-6 4-3 1h-14l-11-4-4-2-4-5-1-6 5-6 5-2z" fill="#041622"/>
  <path d="M499.567 548.086h13l5 3 1 5-4 6-9 7-14 5h-10l-5-3-1-6 4-7 11-7z" fill="#031421"/>
  <path d="M476.567 135.086h10l8 4 4 5v7l-4 6-8 4-10 1-9-3-4-5v-9l4-6 5-3z" fill="#021220"/>
  <path d="M294.567 217.086h8l8 4 5 7 1 4v10l-4 12-2 2 1-5 4-18-7-1h-9l-7 4-9 11-3 1h-8l-5 10-1-2 6-15 6-11 8-9z" fill="#2a4b41"/>
  <path d="m270.567 233.086 5 1-1 5-6 14-5 13-8 6-5 2-2-2 1-2-4-1v-3l-6-1 1 6-4-1-2 4h-6l6-7 2-3-6 3v-3l7-6 12-6 8-8 1-2h3v4h3l1-5 2-2 1-4h2z" fill="#97d031"/>
  <path d="M659.567 200.086h7l6 4 7 9 3 8v8l-4 5-6 1-6-3-8-9-3-7v-12Z" fill="#051722"/>
  <path d="m305.567 296.086 3 1-9 6-11 7-13 8-11 6-13 7-11 6-27 14-6 3-3-1 3-3h3l2-4 7-4 12-8h2v-2l6-3h3v-2l24-13 16-9 5-3 16-5z" fill="#fafdf0"/>
  <path d="M480.567 280.086h13l8 4 5 7 8-1h21l9 2v1l-12-1h-14l-8 1h-12l-2-1v-2l-10-3h-8l-8 2-13 12-7 9-3 6-2 9-2 2 3-25 4-14 2-4h10z" fill="#2b4c42"/>
  <path d="m361.567 649.086 5 1 1 1v6l-7 6-20 11-3 1-20 1 4-4 26-15z" fill="#ade52c"/>
  <path d="m230.567 677.086 3 1v2l-6 3h-2v2l-16 10-9 6-12 7h-4l-1 3-12 7-8-1 1-4 6-5 25-13 16-8z" fill="#fafcf7"/>
  <path d="m83.567 493.086 4 1 2 2-1 7-19 10-11 5h-5l-3-4 2-6 16-8z" fill="#6ec35c"/>
  <path d="M218.567 235.086h6l3 3-1 5-1-2-16 8-18 11-9 5-10 6-2-1 5-4 13-10 19-14z" fill="#fbfdf6"/>
  <path d="m253.567 321.086 2 1-1 4 2 1h-3v3l-10 6-19 9-17 9-3-1 3-3h3l2-4 7-4 12-8h2v-2l6-3h3v-2Z" fill="#fbfdf7"/>
  <path d="m301.567 287.086 2 1-14 12-5 5-17 9-18 10-5 3-3-1 13-10 12-8 21-13z" fill="#2f5343"/>
  <path d="m465.567 647.086 7 6 4 2 8 2-5 4-4 6-1 9-4-5-5-4-9-2 6-7 2-5z" fill="#afe62f"/>
  <path d="m559.567 607.086 7 6 3 2 9 2-5 4-4 5-2 10-4-5-5-4-9-2 5-5 3-4z" fill="#aee62f"/>
  <path d="m243.567 154.086 7 6 6 3 6 1-5 5-4 6-1 8-4-5-6-4-9-1 5-5 4-6z" fill="#ade62e"/>
  <path d="m75.567 396.086 1 2 4-2 1 3-13 8-12 7-11 6-9 6-6 1-1-4 14-8 17-10z" fill="#fbfdf8"/>
  <path d="M331.567 718.086h2l-3 9-4 8v2l17 4 29 4 29 2h13l37-3 16-2h7l-4 2-16 2-3 1-36 2h-32l-2-1-17-1-2-1-17-2-17-3-4-3 1-7ZM404.567 588.086h7v1l-9 3-100 50-11 6-3-1 1-2 12-5 11-6 88-44zM177.567 622.086h5l-2 2-46 23-19 7-10 2-14-1-11-4-10-7-5-6h3l3 3v2l4 2 7 4 9 3 2-1v2h14l15-4 7-2v-2l8-3 14-6 2-2 7-3 9-5z" fill="#2b4c42"/>
  <path d="m537.567 556.086 2 1-9 9-13 9-17 10-7 2 2-3 6-3h2l1-3 6-5 4-2 2-3 7-4 6-4z" fill="#fbfdf8"/>
  <path d="M120.567 195.086h2l-2 5-10 14-11 18-14 27-10 24-6 16-2-2 6-15 2-7 4-8 11-25 9-15 6-9 2-6 5-5z" fill="#2b4c42"/>
  <path d="m616.567 478.086 2 1-2 3h-2l-2 11-5 11h-3l-2-12-12 1 2-2 8-1v-2l15-9Z" fill="#2c4d42"/>
  <path d="M503.567 702.086h6l-3 2-28 7-30 5-26 2h-28l-12-1v-1h31l32-2 13-2 14-2 6-2 19-4z" fill="#2b4c42"/>
  <path d="M398.567 151.086h12l8 2 6 4 6 7 2 9-2 4-2-9-4-5v-2l-5-2-4-2h-16l-7 1 3-6z" fill="#6fc359"/>
  <path d="M54.567 599.086h1l1 16 3 13-2 3-5 1-2 2-1-5v-13l3-15Z" fill="#b2e92a"/>
  <path d="m175.567 338.086 6 3-3 3h-4l-1 3-9 5-10 5-6-1-1-2 15-8z" fill="#f8fcf4"/>
  <path d="m364.567 53.086 2 2-1 1-29 5-25 6-29 9-26 11-2-1 11-6 14-5 10-4 21-7 11-2 18-4 2-1 22-3zM646.567 615.086l2 1-19 19-11 9-15 12-15 10-13 8h-2l1-3 11-6 4-2 3-3 6-4h2l1-3 11-7 4-5 6-4 5-5 13-11z" fill="#2b4c42"/>
  <path d="m263.567 231.086 1 3-4 8h-2l-2 5-4 3h-2l-1 3-12 6v-2l6-5 7-10 4-8 4-2 2 4z" fill="#fbfdf6"/>
  <path d="m214.567 107.086 2 2-18 12-13 10-13 11-12 11-15 15-1-3 6-5 2-3h2l1-3 5-5 9-8h2v-2l11-9 13-10 8-6 10-6z" fill="#2b4c42"/>
  <path d="m480.567 580.086 5 1v1h-6l1 3h-7v2l-5 2-1 2-6-1-6 8-3 6-9 3-5 1 5-4 8-6 2-3h2l2-5 3-3h2l1-3 12-2z" fill="#95cf33"/>
  <path d="m567.567 158.086 2 1-5 5-2 6 1 8 5 7 5 3 10 3 9-1 6-4 2-4v-10l-1-5 3 3 1 3v9l-4 7-5 3-4 1h-11l-9-4-6-5-4-8v-8l3-6z" fill="#2b4c42"/>
  <path d="m307.567 260.086 1 3-7 12-3 1v2l-6 3h-2l-1-4 2-5 11-8z" fill="#fbfdf9"/>
  <path d="m292.567 141.086 6 1 2 3v6l-5 4-5-1-3-4 1-6Z" fill="#a9e330"/>
  <path d="m233.567 259.086 2 1-8 8-11 9-14 12-11 9-12 10h-2v-2l8-6 8-8 3-1 6-7 6-3 4-5 5-3 3-3 9-7z" fill="#2b4c42"/>
  <path d="M602.567 587.086h6l3 3v7l-4 3h-5l-4-5 2-6Z" fill="#a8e22f"/>
  <path d="m692.567 554.086 1 2-8 13-14 20-9 11-12 14-2 1 1-4 7-8 9-10 3-5 2-1 4-7 3-3 3-5 7-10zM216.567 567.086l4 1-28 12-24 11-5 6-1 8h-1v-10l6-7 13-5h2v-2l24-10Z" fill="#2b4c42"/>
  <path d="m75.567 396.086 1 2 4-2 1 3-13 8-9 5-2-1 1-4 5-4z" fill="#f5faef"/>
  <path d="m305.567 296.086 3 1-9 6-11 7-5 2 1-2h2l-2-3-3-1 6-4 16-5z" fill="#fafdf1"/>
  <path d="m435.567 539.086 3 1-22 12-32 16-2-1 9-6 11-5 16-8z" fill="#2b4c42"/>
  <path d="M280.567 306.086h5l1 4-6 5-3 2h-5v-3l-6 1 3-3z" fill="#fbfdf9"/>
  <path d="m254.567 608.086 6 1 3 5-1 7-6 5v-3h2l2-8v-3l-8-1-22 11-7 2 3-3 5-1v-2l9-4 10-5z" fill="#2b4c42"/>
  <path d="m226.567 337.086 2 1-2 3h5l-3 2-21 11-3-1 3-3h3l2-4 7-4z" fill="#f9fcee"/>
  <path d="M644.567 550.086h5l3 3v5l-5 4-5-2-2-5Z" fill="#6ec35c"/>
  <path d="m676.567 431.086 2 1-7 8-11 10-13 8-3 3h-4l-6 1 5-4 4-1 3-1 1-2 11-6 8-6 6-7zM569.567 674.086l4 1-19 10-22 10-6 1 5-4 10-4 14-7z" fill="#2b4c42"/>
  <path d="M218.567 235.086h6l3 3-1 5-1-2-9 3h-7l3-1-1-4Z" fill="#f8fbf6"/>
  <path d="M499.567 548.086h13l5 3 1 5-4 6-9 7-5 1 5-4 9-8 1-5-5-3h-6l-3 1-11 1 2-2Z" fill="#2b4c42"/>
  <path d="m146.567 355.086 5 2 1 2-14 8h-5v-2l-2-1z" fill="#fbfdf6"/>
  <path d="m193.567 252.086 5 2v2l-11 6-13 8-4 1 5-5 13-10z" fill="#f5faee"/>
  <path d="m219.567 624.086 4 1-17 8-14 7h-7l-3-5 1-6 2 2 1 7 6-1 17-8zM65.567 306.086l1 3-6 22-4 19-1 8-5-1 3-3 3-19 1-2 1-9 1-2h2l1-7 2-8z" fill="#2b4c42"/>
  <path d="M436.567 616.086h5l-1 2-2-1v2l-4 3-8 2-7-1v-2h-6v-1l13-2z" fill="#fafdf0"/>
  <path d="m425.567 190.086 1 3-5 10-4 5-5 4-5 1 2-4 4-3v-3l8-7z" fill="#f8fcf1"/>
  <path d="M281.567 649.086h5l-1 2-16 8-27 13-2-1 4-3 13-6 8-4z" fill="#2b4c42"/>
  <path d="M322.567 709.086h2l-3 9-2 1-6 13-1 1h-7l-14-5-1-3 9 3 8 3 4-1z" fill="#2a4a41"/>
  <path d="m558.567 606.086 4 1 8 7 6 1 3 1-1 2-11-3-7-7-3 10-7 6 5 2v1l-7-1 1-4 7-7z" fill="#2b4c42"/>
  <path d="m680.567 435.086 2 3v10l-3 8-3-2-1-4-2-1 5-7 1-5z" fill="#f8fcf1"/>
  <path d="M497.567 144.086h1v7l-4 6-8 4-10 1-9-3-4-5 1-2h2l2 5 7 2h8l6-2 4-3 3-4z" fill="#2b4c42"/>
  <path d="M191.567 214.086h5l2 2v5l-3 3-5-1-2-5Z" fill="#a0dc34"/>
  <path d="M411.567 621.086h8v2l7 1v2h-19l-5-1v-1Z" fill="#f7fbf5"/>
  <path d="M381.567 249.086h2l-1 3-4 1-5 5-2 3v12l5 4v2l-5-2-3-5-1-5 3-9 4-5z" fill="#2b4c42"/>
  <path d="m347.567 655.086 3 1-27 16-5 3 2 2-4 1-1-4 9-6 9-5h2v-2l7-3z" fill="#2b4d42"/>
  <path d="M233.567 332.086h2v2l4 1 5-1-1 2-10 5h-7l2-5 5-2Z" fill="#fafdf3"/>
  <path d="m230.567 677.086 3 1v2l-6 3h-2v2l-8 4-3-2v-2Z" fill="#ecf7e4"/>
  <path d="M481.567 133.086h11l6 4 1 9-4-5-6-4-10-2Z" fill="#6ec35c"/>
  <path d="m479.567 108.086 4 1v2h8v1l-7 1h-27v-1l5-1 17-1Z" fill="#fafdf0"/>
  <path d="m578.567 502.086 1 2-4 6-2 5v7l9 3 4-1-3 3h-9l-3-3-1-7 4-10Z" fill="#2b4c42"/>
  <path d="M120.567 195.086h2l-2 5-10 14-9 14-2 1 2-5 4-6 2-6 5-5z" fill="#294a41"/>
  <path d="M264.567 315.086h2l1 2 3 2-8 5h-4v-2l-3-1 5-4Z" fill="#fbfdfb"/>
  <path d="m571.567 105.086 4 2 4 6-1 6-6 4-3 1h-14l-3-2h15l7-3 3-1-2-8-4-2ZM254.567 552.086l4 1-24 9-12 5-2-1 8-4h2v-2l15-5Z" fill="#2b4c42"/>
  <path d="m603.567 521.086 2 3-5 5-5 3-3 3-4 1 2 3v3l-9-2 5-4 13-10 1-2h2z" fill="#fafdf0"/>
  <path d="M727.567 462.086h2l-4 18-7 22-2-1 4-12 2-9 3-9zM250.567 87.086l4 1-20 10-17 10v-3l22-12ZM196.567 656.086l2 1-13 8h-3l-1 3-13 5-4 1 3-3zM522.567 248.086l3 1-8 6-13 4h-9l-5-1v-1l16-1 11-4ZM705.567 237.086h5l-2 3-11 2-10 7-4 6h-2l2-4 6-7 12-6z" fill="#2b4c42"/>
  <path d="m50.567 621.086 3 3h5l1 4-2 3-5 1-2 2Z" fill="#94cf33"/>
  <path d="M154.567 356.086h5v2l4 1-4 2-4-2v2h-3l-1 3-9 2 5-4 4-4z" fill="#9dd52e"/>
  <path d="m303.567 285.086 3 1-4 5-5 4-1 2 2 1-4 1v2l-7 1 6-7 9-7-1-2z" fill="#88cc42"/>
  <path d="m37.567 418.086 4 2-2 4-3 2-6 1-1-4Z" fill="#f4fae9"/>
  <path d="m325.567 604.086 3 1-6 3-16 6h-7l1-2h2v-2l4 1z" fill="#2d5042"/>
  <path d="m564.567 95.086 5 1 1 5-2 2-9-3 1-4Z" fill="#ace436"/>
  <path d="m754.567 432.086 5 1-1 2-8 1-15 5h-2l-1 7h-1l1-8 8-4 9-2zM679.567 215.086l2 3 1 3v8l-4 5-6 1-6-3 3-1 5 1 5-2z" fill="#2b4c42"/>
  <path d="m671.567 451.086 2 4-2 4-5 1v3h2l2 5-5-2-2-4 5-7h2z" fill="#fafdf0"/>
  <path d="m159.567 276.086 3 1-12 9-10 8-3-1 15-12ZM476.567 135.086h10l-4 2-9 1-6 4-3 9h-1v-6l4-6 5-3zM295.567 696.086l3 1-15 10-9 5 2-4 6-2v-2l7-4 3-3zM196.567 214.086l4 1v7l-3 3-4 1-5-2-2-4 1-4h2l1 6 5 1 2-2v-5Z" fill="#2b4c42"/>
  <path d="m207.567 694.086 2 1-9 6-12 7-4-1 8-4 7-4-2-2z" fill="#fafdf0"/>
  <path d="M81.567 492.086h5l-3 2-19 9h-2l1-3 15-7z" fill="#2b4c42"/>
  <path d="m193.567 252.086 5 2v2l-11 6h-3l5-6Z" fill="#f2fae5"/>
  <path d="m550.567 529.086 5 2-2 3-1-2-4 2-9 1h-3l4-4z" fill="#96ce30"/>
  <path d="m73.567 646.086 7 4-2 3 4 1-1 3-4-1v-2l-4-1-1-5Z" fill="#94d035"/>
  <path d="m489.567 587.086 3 1-11 6h-3l-1 4-4-5 11-4z" fill="#fafdf0"/>
  <path d="m420.567 676.086 4 1 1 4-2 3-5-1v-5Z" fill="#7fc94b"/>
  <path d="m224.567 641.086 2 1-12 7h-2l-1 3-2 1h-6l4-3z" fill="#2b4c42"/>
  <path d="m508.567 575.086 3 4-11 6-7 2 2-3 6-3h2l1-3z" fill="#f7fbef"/>
  <path d="m165.567 368.086 7 1 1 2v14l-2-1-1-10v-3h-9z" fill="#2b4c42"/>
  <path d="m130.567 364.086 3 1v2l3 1-12 7-3-1 5-4 3-2Z" fill="#f8fceb"/>
  <path d="M236.567 264.086h2l2 4-1 3h-4l-1 3h-6l6-7z" fill="#96ce30"/>
  <path d="m415.567 132.086 5 1-3 2-10 2h-17v-1l23-2Z" fill="#fafdf0"/>
  <path d="M152.567 679.086h2v2l-6 4-11 4-3-1 16-8Z" fill="#2b4c42"/>
  <path d="m201.567 353.086 5 1-4 3-10 6h-2v-2Z" fill="#b8ec2b"/>
  <path d="m619.567 500.086 1 2h2v2h-3l1 3 2 1-1 4-4-5h-2l-3 3 2-5zM302.567 270.086l1 2-3 4h-2v2l-6 3h-2l-1-4 2-3 4 3 4-4h2z" fill="#fafdf0"/>
  <path d="m526.567 166.086 2 2v18l1 7-2-2-1-4v-12h-2z" fill="#96ce30"/>
  <path d="m556.567 626.086 5 2 5 6 1-6 2 1-1 8h-4l-1-5h-2Z" fill="#294a41"/>
  <path d="m558.567 606.086 4 1 8 7 6 1 3 1-1 2-11-3-7-7h-2Z" fill="#2c4f42"/>
  <path d="m602.567 506.086 2 1-2 5-5 5-4 3h-2l2-4 7-6z" fill="#2b4c42"/>
  <path d="m253.567 321.086 2 1-1 4 2 1h-3v2h-5l-1-3 4-4Z" fill="#fbfdfb"/>
  <path d="m78.567 661.086 5 2-2 1v2l-9 1 1-4z" fill="#96ce30"/>
  <path d="m355.567 580.086 3 1-19 10-2-1 5-3h2v-2l9-4z" fill="#2b4c42"/>
  <path d="m537.567 556.086 2 1-9 9-3-4z" fill="#f6fbef"/>
  <path d="M499.567 548.086h13l1 2h-9l-3 1-11 1 2-2Z" fill="#294a41"/>
  <path d="m383.567 280.086 9 3h15l-3 2-11 1-10-4Z" fill="#96ce30"/>
  <path d="m242.567 671.086 4 1-9 6-4 2-1-4Z" fill="#aee63a"/>
  <path d="m463.567 653.086 1 3-3 5-4 3 4 2-4 1-3-1 2-5 3-3h2z" fill="#2c4f42"/>
  <path d="M54.567 599.086h1v16l-3 4-1-6z" fill="#83ca47"/>
  <path d="m418.567 318.086 6 1 9 4 7 4-3 1-8-5-9-3Z" fill="#2b4c42"/>
  <path d="M391.567 240.086h23l-5 4h-3l1-2h-14Z" fill="#96ce30"/>
  <path d="m377.567 138.086 3 1-17 9-3 4-2-1 4-5z" fill="#fafdf0"/>
  <path d="m488.567 552.086 2 1-12 11-2-1 3-5z" fill="#2b4c42"/>
  <path d="m75.567 396.086 1 2 4-2 1 3-6 4-3-1-1-2Z" fill="#f4fae6"/>
  <path d="m51.567 602.086 1 4-2 10-2 1v-13h2z" fill="#fafdf0"/>
  <path d="M179.567 336.086h7l-2 5-3 1-5-4Z" fill="#fbfdfa"/>
  <path d="m393.567 273.086 4 1-8 4-7 2h-4v-2l12-3Z" fill="#2b4c42"/>
  <path d="M210.567 240.086h2v3h6l-1 2-8 3v-2l-3-1Z" fill="#fafdf5"/>
  <path d="m153.567 159.086 3 1-3 1-2 4h-2v2l-6 6-1-2 7-8z" fill="#9ad938"/>
  <path d="M426.567 67.086v3l-9 10-5 2 6-7z" fill="#2b4c42"/>
  <path d="m84.567 681.086 8 1 2 2-8 7v-3l3-3-2-1v-2Z" fill="#fafdf0"/>
  <path d="m321.567 672.086 13 2v1l-17 1Z" fill="#83ca4d"/>
  <path d="m138.567 360.086 2 1-2 6h-5v-2l-2-1Z" fill="#fbfdfa"/>
  <path d="m246.567 248.086 3 3-6 5-6 3v-2l6-5z" fill="#f4faec"/>
  <path d="m173.567 181.086 1 3-12 12v-3Z" fill="#23413b"/>
  <path d="M48.567 624.086h1l1 5v11h-1l-1-7-2 1v-7Z" fill="#fafdf0"/>
  <path d="M471.567 193.086h13v1l-11 2-5 5 1-4Z" fill="#96ce30"/>
  <path d="m595.567 161.086 5 2 3 5 1 4v9h-1l-2-11Z" fill="#77c551"/>
  <path d="M602.567 691.086v3l-8 5-5 2-3-1z" fill="#294a40"/>
  <path d="m70.567 399.086 2 1 1 4-5 2-3-2v-2Z" fill="#fbfdf9"/>
  <path d="m142.567 291.086 2 1-3 5-8 4-2-1z" fill="#8dd34b"/>
  <path d="m759.567 201.086 5 1-1 5-3 1-2-2Z" fill="#96d643"/>
  <path d="M508.567 98.086h5l-1 2h-2l-1 3-5 2 1-5Z" fill="#fafdf0"/>
  <path d="m290.567 725.086 9 3 9 4-3 1-14-5Z" fill="#2b4c42"/>
  <path d="m524.567 645.086 3 2-1 5h-4l-1-4Z" fill="#7fca5d"/>
  <path d="m56.567 504.086 3 1-5 3h-2l-1 6 2 4-4-1-1-3 3-7z" fill="#2b4c42"/>
  <path d="m127.567 389.086 2 1-10 6-4 3-4-1z" fill="#294a40"/>
  <path d="m206.567 243.086 3 3v3l-7 1 1-4Z" fill="#fbfdfa"/>
  <path d="m482.567 658.086 2 1-4 5-4 4-2 4 1-7 4-5z" fill="#294a40"/>
  <path d="m334.567 591.086 3 1-14 8-2-1 5-4Z" fill="#2b4c42"/>
  <path d="m278.567 298.086 2 2-11 7v-3l1-3 8-1Z" fill="#89cb3e"/>
  <path d="M519.567 696.086h7l-3 2-11 4-3-1Z" fill="#2b4c42"/>
  <path d="m676.567 434.086 1 2-6 7h-2l-1 3-3-1z" fill="#89ca3d"/>
  <path d="M23.567 427.086v3l-1 6 3 5v2l-4-2-1-2v-7ZM180.567 274.086l2 1-6 5-9 4-1-2zM201.567 262.086l2 1-9 7-5 1v-2Z" fill="#2b4c42"/>
  <path d="m236.567 258.086 1 4 1 2-8 3v-3Z" fill="#93d33a"/>
  <path d="M291.567 139.086h6l1 3h-6l-4 4-2 4 1-7z" fill="#2b4c42"/>
  <path d="M448.567 114.086h5l-2 2-10 5 1-5Z" fill="#fafdf0"/>
  <path d="m176.567 714.086 2 1-7 5h-6l-2-3h8z" fill="#b7ec27"/>
  <path d="m461.567 595.086 5 2v3l-6 3h-3l5-6-2-1Z" fill="#93cf35"/>
  <path d="M643.567 548.086h6l3 3-1 2-2-2h-5l-4 4 1-5z" fill="#2b4c42"/>
  <path d="m605.567 502.086 2 3-4 9h-2v2h-2l2-4 2-5z" fill="#7bc349"/>
  <path d="M113.567 267.086h2l-2 6-4 8-2-1Z" fill="#26453e"/>
  <path d="m403.567 255.086 2 2-1 9-4 6-3 1v-2l2-1 4-8z" fill="#2b4c42"/>
  <path d="m436.567 122.086 3 1-9 7-4-1h3l-2-4h3l5-2z" fill="#fafdf0"/>
  <path d="M358.567 663.086v3l-4 3-5 2-3-1Z" fill="#2b4c42"/>
  <path d="M426.567 611.086h4v2l-6 2-10 2 1-2z" fill="#7fc849"/>
  <path d="m407.567 598.086 2 1-4 2-1 3-5 2-3-1Z" fill="#2b4c42"/>
  <path d="m236.567 274.086 8 3-4 3-5-2Z" fill="#97d334"/>
  <path d="M267.567 219.086h4l-2 4-3 4-2 4-1-3 2-4h2z" fill="#fafdf0"/>
  <path d="M202.567 154.086v3l-9 8-3-1z" fill="#24433c"/>
  <path d="m74.567 677.086 4 2 6 1-2 1-1 3h-3l-2-5h-2ZM466.567 599.086l1 3-3 3-5 3-3-1ZM563.567 547.086h2l-2 4-5 2-4-1 7-4Z" fill="#fafdf0"/>
  <path d="M531.567 200.086h2l6 10 2 4-3-1-7-11Z" fill="#96ce30"/>
  <path d="M120.567 195.086h2l-2 5-6 8-2-1ZM262.567 164.086v3l-3 1-1 5-5 1 3-5z" fill="#2b4c42"/>
  <path d="m349.567 160.086 1 2-5 4-1 2h-2v2h-2l-1 2-1-4 5-1 2-4z" fill="#fafdf0"/>
</svg>
